<?xml version="1.0" standalone="no"?>
<!DOCTYPE svg PUBLIC "-//W3C//DTD SVG 20010904//EN"
 "http://www.w3.org/TR/2001/REC-SVG-20010904/DTD/svg10.dtd">
<svg version="1.0" xmlns="http://www.w3.org/2000/svg"
 width="180.000000pt" height="180.000000pt" viewBox="0 0 180.000000 180.000000"
 preserveAspectRatio="xMidYMid meet">
<metadata>
Created by potrace 1.11, written by Peter Selinger 2001-2013
</metadata>
<g transform="translate(0.000000,180.000000) scale(0.100000,-0.100000)"
fill="#000000" stroke="none">
<path d="M370 1793 c-70 -8 -171 -56 -230 -110 -59 -55 -116 -144 -106 -169 3
-8 2 -12 -4 -9 -21 13 -25 -94 -25 -615 0 -503 1 -549 18 -598 42 -118 136
-219 249 -265 52 -22 61 -22 623 -22 523 0 574 1 621 18 113 39 211 133 256
245 l23 57 0 575 c0 567 0 576 -22 628 -45 110 -135 197 -253 244 -54 21 -65
22 -585 24 -291 1 -546 0 -565 -3z m711 -347 c30 -7 66 -19 80 -26 59 -30 109
-66 109 -78 0 -17 -48 -112 -68 -134 -22 -26 -54 -22 -135 13 -76 34 -164 42
-207 19 -27 -14 -60 -68 -60 -97 0 -31 52 -78 107 -99 236 -86 285 -111 322
-163 40 -55 54 -103 53 -181 -1 -169 -91 -290 -253 -342 -86 -27 -223 -21
-325 15 -84 29 -184 90 -184 112 0 16 67 126 84 137 22 15 72 8 106 -15 68
-45 106 -59 175 -64 62 -4 74 -2 105 19 67 46 73 143 12 186 -15 11 -84 38
-154 60 -70 23 -145 53 -166 66 -46 29 -90 79 -98 112 -3 13 -10 22 -14 19 -4
-3 -7 50 -7 118 2 121 2 123 35 169 38 55 92 108 110 108 6 0 12 3 12 8 0 9
52 33 94 43 51 12 207 9 267 -5z m-461 -90 c0 -2 -7 -9 -15 -16 -13 -11 -14
-10 -9 4 5 14 24 23 24 12z m-589 -999 c-10 -9 -11 -8 -5 6 3 10 9 15 12 12 3
-3 0 -11 -7 -18z"/>
</g>
</svg>
